<svg width="1687" height="1073" viewBox="0 0 1687 1073" fill="none" xmlns="http://www.w3.org/2000/svg">
<g clip-path="url(#clip0_192_567)">
<rect width="1687" height="1073" fill="#E9F4FF"/>
<path d="M-85.3731 1205.59C-109.758 1233.69 -106.95 1277.12 -73.8493 1294.1C-34.6317 1314.23 9.07921 1324.96 53.7926 1324.99C121.152 1325.04 186.271 1300.8 237.208 1256.73C288.145 1212.65 321.485 1151.69 331.115 1085.02C340.746 1018.36 326.02 950.451 289.639 893.762C253.258 837.073 197.66 795.398 133.041 776.382C68.4216 757.365 -0.887188 762.281 -62.1756 790.227C-123.464 818.173 -172.624 867.277 -200.64 928.533C-219.237 969.195 -227.691 1013.4 -225.732 1057.44C-224.078 1094.61 -185.765 1115.25 -150.062 1104.79C-114.359 1094.33 -95.5777 1055.79 -88.9666 1019.18C-86.8255 1007.32 -83.2023 995.688 -78.1173 984.57C-63.5818 952.789 -38.0765 927.313 -6.27858 912.814C25.5193 898.314 61.4783 895.764 95.0042 905.63C128.53 915.497 157.376 937.118 176.251 966.53C195.126 995.942 202.766 1031.17 197.77 1065.76C192.774 1100.35 175.476 1131.98 149.048 1154.85C122.621 1177.71 88.836 1190.29 53.8884 1190.26C41.6626 1190.25 29.5812 1188.7 17.9093 1185.71C-18.1291 1176.47 -60.9886 1177.49 -85.3731 1205.59Z" fill="#C5E2FF"/>
<path d="M1833.13 439.581C1904.11 452.718 1974.46 404.948 1966.37 333.216C1960.79 283.761 1946.76 235.969 1924.64 192.563C1883.42 111.656 1816.88 51.4098 1737.22 22.8732C1657.56 -5.66337 1570.13 -0.577777 1490.95 37.1974C1411.78 74.9725 1346.16 142.905 1306.15 228.538C1266.13 314.17 1254.4 411.762 1273.09 503.417C1291.79 595.073 1339.66 674.648 1407.93 727.549C1476.2 780.45 1560.3 803.133 1644.79 791.436C1691.34 784.993 1736.28 768.356 1777.21 742.913C1835.64 706.586 1832.11 626.143 1784.72 576.269L1726.87 515.398C1702.26 489.508 1659.28 494.453 1623.9 499.351C1602.38 502.33 1580.96 496.553 1563.58 483.079C1546.19 469.606 1534 449.339 1529.23 425.995C1524.47 402.652 1527.46 377.796 1537.65 355.986C1547.85 334.177 1564.56 316.875 1584.72 307.254C1604.89 297.633 1627.16 296.338 1647.44 303.606C1667.73 310.874 1684.68 326.218 1695.18 346.824C1712.94 381.692 1735.8 421.568 1774.28 428.689L1833.13 439.581Z" fill="#C5E2FF"/>
<g opacity="0.6" filter="url(#filter0_f_192_567)">
<ellipse cx="1282.17" cy="847.433" rx="319.222" ry="57" transform="rotate(8.66323 1282.17 847.433)" fill="url(#paint0_radial_192_567)" fill-opacity="0.29"/>
</g>
</g>
<defs>
<filter id="filter0_f_192_567" x="866.467" y="673.355" width="831.397" height="348.155" filterUnits="userSpaceOnUse" color-interpolation-filters="sRGB">
<feFlood flood-opacity="0" result="BackgroundImageFix"/>
<feBlend mode="normal" in="SourceGraphic" in2="BackgroundImageFix" result="shape"/>
<feGaussianBlur stdDeviation="50" result="effect1_foregroundBlur_192_567"/>
</filter>
<radialGradient id="paint0_radial_192_567" cx="0" cy="0" r="1" gradientUnits="userSpaceOnUse" gradientTransform="translate(1282.17 847.433) scale(319.222 57)">
<stop/>
<stop offset="1" stop-color="#666666"/>
</radialGradient>
<clipPath id="clip0_192_567">
<rect width="1687" height="1073" fill="white"/>
</clipPath>
</defs>
</svg>
